<svg xmlns="http://www.w3.org/2000/svg" viewBox="0 0 1024 1024" preserveAspectRatio="xMidYMid meet"><path fill="#f9fafb" d="M469.276-127.954c11.992-.094 23.983-.084 35.974-.057q7.875.015 15.75-.005c73.177-.152 146.068 2.564 503 128.016 45.282 46.018 71.16 111.61 128.01 505.25q-.014 7.875.006 15.75c.152 73.177-2.564 146.068-128.016 503-46.018 45.282-111.61 71.16-505.25 128.01q-7.875-.014-15.75.006c-73.177.152-146.068-2.564-503-128.016-45.282-46.018-71.16-111.61-128.01-505.25q.013-7.875-.006-15.75c-.152-73.177 2.564-146.068 597.292-630.954"/><path fill="#6ed2db" d="m611 365 1.437.988c32.93 22.926 54.845 58.396 62.055 97.688 1.226 8.024 1.652 15.676 1.637 23.795l.006 3.752q.005 5.1 0 10.202-.003 4.334 0 8.667.006 11.612-.004 23.225-.007 8.437-.009 16.876c-.013 50.942-.3 101.872-1.122 152.807-3.156-1.526-5.709-3.224-8.437-5.437l-2.668-2.165c-3.637-2.996-7.214-6.062-10.797-9.12-3.936-3.341-7.957-6.552-12.035-9.716-5.509-4.275-10.826-8.732-16.098-13.294a356 356 0 0 0-12.18-10.053c-4.491-3.553-8.91-7.197-13.341-10.824l-2.003-1.633-1.79-1.465c-3.43-2.849-3.43-2.849-7.842-3.094-4.093.733-7.87 2.143-11.746 3.614-43.323 15.724-90.184 13.846-131.938-5.625-20.032-9.676-39.09-23.805-53.125-41.188l-1.12-1.353c-7.11-8.627-12.744-17.73-17.88-27.647l-.973-1.85c-18.847-36.295-20.821-80.4-8.75-119.08C366.935 428.965 373.595 416.22 382 404l1.162-1.697C407.48 367.428 445.942 346.255 487 338l1.792-.364C530.238 329.666 576.598 340.98 611 365"/><path fill="#3baebe" d="M344 455c1.578 3.363.722 6.459.078 9.996-1.372 8.465-1.38 16.878-1.339 25.436.011 2.63 0 5.26-.012 7.89-.04 43.71 18.057 83.379 48.523 114.24 32.651 32.446 77.206 50.39 123.125 50.688 22.736-.193 44.641-3.684 66.027-11.583 2.753-.707 3.987-.695 6.598.333a87 87 0 0 1 5.375 3.875l1.575 1.206A788 788 0 0 1 599 661l1.7 1.324c3.511 2.74 7.01 5.498 10.505 8.26q2.7 2.129 5.408 4.244C636.25 690.186 636.25 690.186 642 696a174970 174970 0 0 1-127.405.11l-2.707.001q-21.675.015-43.35.043-22.256.028-44.51.034-13.724.004-27.446.028-9.422.015-18.844.011-5.429-.003-10.856.011-4.984.014-9.97.004-2.626 0-5.253.016c-10.836-.04-21.646-1.238-32.034-4.446l-2.134-.649c-30.194-9.518-56.904-29.898-71.778-58.134-14.956-29.605-18.277-62.558-7.963-94.279 9.085-26.372 26.706-48.684 50.25-63.75l1.465-.948C303.471 465.118 319.637 458.858 336 456l2.527-.531c2.223-.406 2.223-.406 5.473-.469"/><path fill="#3baebd" d="M686 455c27.215 1.048 53.014 14.016 73 32l1.46 1.307C777.302 503.626 789.162 524.029 795 546l.496 1.857c7.721 30.662 2.07 64.314-14.012 91.252-18.552 29.774-48.01 48.668-81.726 56.775-1.927.432-3.8.848-5.758 1.116l-3.077.56L688 697c-1.042-2.806-.8-5.736-.753-8.696l-.026-2.835c-.021-3.167 0-6.332.022-9.5q-.01-3.387-.027-6.773-.03-7.32-.005-14.64c.022-7.068.01-14.135-.01-21.203a9184 9184 0 0 1-.026-34.443q.017-16.693-.002-33.386l-.002-2.072a62823 62823 0 0 0-.049-32.318q-.02-12.48-.012-24.96.003-7.175 0-14.351 0-3.319.006-6.638.006-4.546.002-9.093l.01-2.626c-.014-6.2-.483-12.302-1.128-18.466"/><path fill="#fdfefe" d="M609.688 475.063c6.775 3.501 11.967 8.445 14.687 15.62 1.81 6.712.863 12.557-1.91 18.883-3.2 5.317-7.882 9.087-13.34 11.934-9.204 1.473-16.312.946-24.125-4.5-5.142-4.578-7.651-9.269-8.3-16.219-.03-8.005.207-12.259 5.55-18.344 7.745-7.252 16.785-11.385 27.438-7.375"/><path fill="#fdfefe" d="M527.375 476c6.43 3.64 10.29 9.056 12.625 16 .95 7.298.154 13.834-4 20-5.561 6.2-11.451 9.991-19.812 10.5-7.79-.284-13.913-3.761-19.188-9.375-2.838-3.579-4.478-6.584-5-11.125l-.281-2.309c-.427-6.84 1.287-12.123 5.281-17.691 8.41-8.207 19.393-10.935 30.375-6"/><path fill="#fdfefe" d="M443.29 476.8c5.385 3.776 9.62 8.93 11.71 15.2.758 8.393.176 14.79-5.168 21.457-4.584 4.91-9.626 8.145-16.348 8.781-7.858.214-12.844-.89-18.683-6.261-4.063-4.275-7.229-8.006-7.801-13.977l-.242-2.375c-.316-6.084.585-10.688 4.242-15.625 8.663-9.359 20.37-14.132 32.29-7.2"/><path fill="#24a5b6" d="M634 690c3.38 1.449 5.459 3.373 8 6a353673 353673 0 0 1-130.558.056q-21.76.007-43.52.021-22.324.014-44.648.017-13.778.002-27.555.014-9.445.007-18.889.006-5.451-.002-10.902.005-4.992.007-9.982.002-2.66.001-5.32.008c-10.14-.019-10.14-.019-14.626-1.129v-1c1.559-.106 3.123-.134 4.685-.139l3.167-.016 3.537-.003 3.712-.015q5.13-.02 10.262-.028 5.52-.013 11.043-.034 9.576-.032 19.153-.056 13.845-.035 27.692-.08 22.462-.071 44.923-.132a129175 129175 0 0 0 59.853-.174q55.987-.17 111.973-.323z"/><path fill="#6fd3db" d="M366.059 443.16 368 444c1.158 2.943 1.37 5.866 1 9-2.375 1.375-2.375 1.375-5 2l-1 3a100 100 0 0 1-3 4c-1.343-6.595-.746-11.794 2-18 2-1 2-1 4.059-.84"/><path fill="#5cced7" d="M673 664h2c.24 1.48.24 1.48.227 3.58v2.366l-.032 2.585-.008 2.623c-.012 2.782-.037 5.564-.062 8.346q-.016 2.819-.027 5.637-.034 6.93-.098 13.863l-4-2 2-1c.154-2.692.182-5.283.125-7.973l-.023-2.417c-.024-2.558-.062-5.115-.102-7.673q-.078-5.048-.125-10.097l-.05-2.377c-.017-1.822.067-3.644.175-5.463"/><path fill="#69d1da" d="M661 425c3.087 3.59 4.598 7.505 6.25 11.875l.852 2.105c1.708 4.49 2.154 7.36.898 12.02-4.296-8.266-6.65-16.815-8-26"/><path fill="#5dbcc8" d="M339 481c2.207 1.747 2.94 2.626 3.388 5.452l.01 2.872.012 3.115-.035 3.248.035 3.284-.012 3.103-.01 2.862L342 507h-3c-.34-2.387-.34-2.387-.293-5.687l.013-1.75c.017-1.854.054-3.708.092-5.563q.024-1.879.042-3.758c.033-3.08.085-6.161.146-9.242"/><path fill="#24a4b6" d="M615 675c4.86 1.52 8.06 4.33 11.813 7.625l1.81 1.563A733 733 0 0 1 633 688h-3l-2.625.313L625 688a88 88 0 0 1-1-5l-1.75-.437c-3.52-.88-5.235-3.656-7.25-6.563z"/><path fill="#2ba6b7" d="M379 601c5.079 4.213 9.805 8.679 14.438 13.375l1.927 1.941q2.321 2.339 4.635 4.684c-3 0-3 0-4.762-1.453l-1.925-2.012c-.7-.717-1.398-1.435-2.118-2.174L389 613.063a973 973 0 0 0-4.312-4.465l-1.926-2.016c-1.78-1.81-1.78-1.81-4.762-2.582z"/><path fill="#28a7b7" d="m769 648 1 2 3-1c-1.416 3.15-3.137 5.495-5.437 8.063l-1.81 2.035L764 661l-1.598 1.809L761 664l-2-1 1.82-1.68 2.305-2.195 2.32-2.18L767 655l-2-2c1.875-2.625 1.875-2.625 4-5"/><path fill="#69d0da" d="M671 454c3.318 4.424 3.62 9.623 3 15-1.012 2.25-1.012 2.25-2 4q-.508-2.812-1-5.625l-.562-3.164c-.427-3.129-.586-6.058-.438-9.211z"/><path fill="#71d4dc" d="m540 340-2.937-.125L534 340l-1 2-5-2c-4.154-.288-4.154-.288-8 1v-2l-3-1c2.937-.197 5.875-.381 8.813-.562l2.525-.17 2.432-.147 2.237-.143c3.2.035 4.743.772 6.993 3.022"/><path fill="#2aa7b7" d="M260 500c0 3.729-1.152 5.8-3 9h-2l.188 1.875L255 513c-2.5 1.25-2.5 1.25-5 2 1.342-3.804 3.04-6.611 5.563-9.75l1.878-2.36C259 501 259 501 260 500"/><path fill="#2eaaba" d="M338 457c-.062 1.938-.062 1.938-1 4-2.434.837-4.377.905-7 1v-2c-2.5-.167-2.5-.167-5 0 3.722-3.722 8.02-3.096 13-3"/><path fill="#70d3dc" d="M477 641c2.063.188 2.063.188 4 1l-1 2 1.68-.324 2.195-.364 2.18-.386L488 643c1.258 1.48 1.258 1.48 2 3-10.74 1.521-10.74 1.521-14 0-.062-2.625-.062-2.625 1-5"/><path fill="#2ca7b7" d="M241 621c6.645 2.29 6.645 2.29 8.063 5.125L249 628l-2 1v-2h-2l1.563 2.875L248 633l-1 2a1446 1446 0 0 1-3-5.875l-.867-1.684C241 623.227 241 623.227 241 621"/><path fill="#70d3dc" d="M505 521c1.532.252 3.053.576 4.563.938l2.503.59L514 523l-2 1-1 2v-2h-2c-.167 2-.167 2 0 4-2.5-.187-2.5-.187-5-1-.375-2.5-.375-2.5 0-5z"/><path fill="#5ccdd7" d="M484 646c2.244-.13 4.443-.185 6.688-.187l1.896-.038c3.896-.012 6.874.403 10.416 2.225v1c-6.415.576-12.871.028-19-2z"/><path fill="#26a5b6" d="M349 551c3 1 3 1 4.64 4.055a236 236 0 0 1 1.61 3.82l.852 1.934c2.026 4.806 2.026 4.806.898 8.191a669 669 0 0 1-2.5-4.812l-1.406-2.708C352 559 352 559 352 556h-2c-.625-2.5-.625-2.5-1-5"/><path fill="#22a4b5" d="M690 456c6.338-.423 12.011.91 18 3v1a98 98 0 0 1-5.875.188l-3.305.042C696 460 696 460 694 458a89 89 0 0 0-4-2"/><path fill="#2da8b9" d="M346 538c2 1 2 1 2.668 2.488 1.72 6.041 1.72 6.041.332 9.512l-.312-2-.688-2h-3l-1 2z"/><path fill="#5cccd6" d="M575 494h1c.389 1.469.389 1.469.754 3.5l.4 2.188.409 2.312.42 2.313q.514 2.842 1.017 5.687h-3c-1.475-5.097-1.354-10.735-1-16m4 16 2 1-1 2z"/><path fill="#5fced7" d="m673 689 2 1c.148 2.231.186 4.336.125 6.563l-.027 1.865c-.024 1.524-.06 3.048-.098 4.572l-4-2 2-1c.245-2.594.245-2.594.125-5.562l-.055-3.067z"/><path fill="#3fb0bf" d="M234 552c3.063.25 3.063.25 6 1 0 2 0 2-1 4l-2 1-2 4z"/><path fill="#5accd7" d="m408 508 2.063 2.125c2.666 2.674 5.497 5.115 8.386 7.543 1.231 1.058 2.403 2.184 3.551 3.332-2.2.336-2.2.336-5 0-1.868-1.776-3.287-3.344-4.812-5.375l-1.233-1.54C408 510.312 408 510.312 408 508"/><path fill="#28a5b6" d="M240 534c1.33 2.66.811 4.042.25 6.938l-.484 2.652c-.823 2.589-1.703 3.693-3.766 5.41.42-5.586 1.577-9.943 4-15"/><path fill="#3caebe" d="M693.063 687.563 695 688c.563 3 .563 3 0 6-2.5.688-2.5.688-5 0-.375-2.437-.375-2.437 0-5 1-1 1-1 3.063-1.437"/><path fill="#70d3dc" d="m537.625 644.938 1.914.59L541 646c-.617 1.516-.617 1.516-2 3-2.82.11-2.82.11-6.125-.25l-3.32-.328L527 648v-1c1.237.03 1.237.03 2.5.063L532 647v-2c2.465-1.233 3.068-.867 5.625-.062"/><path fill="#61cfd8" d="m386 399 2 1c-.75 1.813-.75 1.813-2 4l-.875 2.188C384 408 384 408 381.875 408.75L380 409c1.397-4.074 3.074-6.892 6-10"/><path fill="#23a4b5" d="M464 657c5.202.513 10.032 1.344 15 3v1c-3.104-.23-6.185-.59-9.277-.941L467 660l-1 2 .125-1.937L466 658z"/><path fill="#26a6b6" d="m781 636 1 2c-1.434 2.383-1.434 2.383-3.437 5.125l-1.997 2.758L775 648c0-2.894.197-5.225 1-8l3-1c1.193-1.497 1.193-1.497 2-3"/><path fill="#3daebd" d="M239 586c1.056 3.167.98 3.964 0 7l-1 2-3-1c.156-2.961.616-4.555 2.563-6.812z"/><path fill="#70d4dc" d="M658 424c3 1 3 1 4.25 3.375C663 430 663 430 662 433v-2l-3.125-.812L656 429c.438-2.687.438-2.687 2-5"/><path fill="#60cfd8" d="M590 634c1.335.086 2.668.195 4 .313l2.25.175L598 635v3l1 3c-3.89-1.585-6.156-3.998-9-7"/><path fill="#5fcfd8" d="m479 341-3.906 3.71c-1.31 1.262-1.31 1.262-1.094 3.29l-3-1v-2c-1.462-1.141-1.462-1.141-3-2 3.823-1.423 6.913-2.24 11-2"/><path fill="#3dafbe" d="M265 656c2.5.875 2.5.875 5 2v2l3-1c1.375 1.313 1.375 1.313 2 3-1.23 1.313-1.23 1.313-3 2-1.824-1.3-1.824-1.3-3.687-3.312l-1.887-1.989C265 657 265 657 265 656"/><path fill="#3db0be" d="M497 664v1c-1.715.605-1.715.605-3.937 1.188l-2.215.605L489 667l-1-2c-2.017-1.134-2.017-1.134-4-2 5.095-1.243 8.179-.736 13 1"/><path fill="#73d3dc" d="M499 647h12l-4 1v2c-2.875.313-2.875.313-6 0z"/><path fill="#3daebd" d="M240 599c.25 2.875.25 2.875 0 6-1.5 1.375-1.5 1.375-3 2v-2l-2-1c1.875-5 1.875-5 5-5"/><path fill="#6fd3db" d="M377 568h2a88 88 0 0 1 2 4c.976 1.351 1.97 2.69 3 4l-3 1c-1.168-1.11-1.168-1.11-2.187-2.75l-1.043-1.61C377 571 377 571 377 568"/><path fill="#5dcdd7" d="m362 536 1 2h2v2l2 1h-2c-.016 1.613-.016 1.613.375 3.5l.336 1.969L366 548c-2.92-2.92-3.909-6.27-4.125-10.375z"/><path fill="#60cfd9" d="M362 446c1.46 2.647 2 3.894 2 7-2 1.688-2 1.688-4 3q.212-2.22.438-4.437c.08-.824.162-1.648.246-2.497C361 447 361 447 362 446"/><path fill="#5bcdd7" d="M661 425c2.253 2.915 3.907 5.45 5 9l-1 3-2-1c-.633-2.504-.633-2.504-1.125-5.562l-.508-3.067z"/><path fill="#30a8b8" d="M624 684c6.698 1.612 6.698 1.612 8.227 3.574L633 689c-2.724-.124-5.357-.302-8-1-1-2.062-1-2.062-1-4"/><path fill="#23a4b4" d="M342 517h1c.293 1.824.509 3.661.688 5.5l.324 3.094L344 528h-2c-1.009-3.943-1.151-7.086 0-11"/><path fill="#1ea2b4" d="m315 464-2 .375-2 .625v2c-1.75.414-1.75.414-4 .625l-2.25.227L303 468c3.847-3.134 7.045-5.652 12-4"/><path fill="#27a6b7" d="M755 668c-3.71 4.004-3.71 4.004-5 5l-2-1v-3c2.463-1.231 4.28-1.072 7-1"/><path fill="#70d3dc" d="M427 620c2.5-.187 2.5-.187 5 0-.25 2.063-.25 2.063-1 4-2.062-.062-2.062-.062-4-1z"/><path fill="#3fb1bf" d="M794 595h1c.422 1.68.422 1.68.75 3.875l.36 2.18L796 603c-1.484 1.258-1.484 1.258-3 2v-2l-2-1 1-2h2q.063-2.5 0-5"/><path fill="#3dafbd" d="M260 502c1.563 1.438 1.563 1.438 3 3l-5 3c.875-4.875.875-4.875 2-6m-5 7 2 1-2 1z"/><path fill="#23a5b5" d="M736 471q1.974.928 3.938 1.875l2.214 1.055C744 475 744 475 745 477c-1.17-.28-2.336-.575-3.5-.875l-1.969-.492L738 475v-2h-2z"/><path fill="#3dafbe" d="M506 690c-.125 2-.125 2-1 4-3.062.25-3.062.25-6 0 3.625-4 3.625-4 7-4"/><path fill="#22a4b5" d="M572 657c-2.137 2.012-3.87 2.136-6.687 2.125L562 659c3.195-3.195 5.78-3.357 10-2"/><path fill="#2ba7b8" d="M253 509h2c.438 1.875.438 1.875 0 4-2.5 1.25-2.5 1.25-5 2 1.875-4.875 1.875-4.875 3-6"/><path fill="#3dafbf" d="M276 488c-1.75 3.875-1.75 3.875-4 5l-2-2c1.953-2.673 2.596-3 6-3"/><path fill="#75d5dd" d="M359 454h3c.875 1.75.875 1.75 1 4-1.437 2.25-1.437 2.25-3 4-.246-1.33-.472-2.664-.687-4l-.387-2.25z"/><path fill="#6fd3dc" d="M366 448h3c.5 2.375.5 2.375 0 5-2.5 1.313-2.5 1.313-5 2 .254-1.17.529-2.336.813-3.5l.457-1.969z"/><path fill="#3daebd" d="m302 680 2 1 1 3c-1.812.813-1.812.813-4 1l-2-2v-2z"/><path fill="#23a3b4" d="M250 638c1.938.625 1.938.625 4 2 .75 3.125.75 3.125 1 6-2.799-2.528-4.458-4.204-5-8"/><path fill="#3caebe" d="M299 515h2c.875 1.875.875 1.875 1 4-1.937 1.25-1.937 1.25-4 2 .375-3 .375-3 1-6"/><path fill="#5cccd7" d="M671 454c2.21 2.623 2.181 4.645 2 8l-3-1c-.25-3-.25-3 0-6z"/><path fill="#6fd2da" d="M669 694h3c.188 3 .188 3 0 6-1.5-.75-1.5-.75-3-2-.375-2.125-.375-2.125 0-4"/><path fill="#3caebd" d="M760 656c2.5-.25 2.5-.25 5 0-.812 2-.812 2-2 4h-3c-.5-2-.5-2 0-4"/><path fill="#3dafbf" d="m764 652 1 2 3-1c-.75 2.125-.75 2.125-2 4-2.25-.562-2.25-.562-4-2 .75-1.625.75-1.625 2-3"/><path fill="#f8fdfd" d="m584 636 3 1c-2.375 2.125-2.375 2.125-5 4l-2-2c1.688-1.687 1.688-1.687 4-3"/><path fill="#5ecdd8" d="M571 638c2.351-.282 4.626-.086 7 0-1.75 1.563-1.75 1.563-4 3-2.25-.312-2.25-.312-4-1z"/><path fill="#58ccd6" d="m373 564 3 1c.73 1.848.73 1.848 1.188 4.063l.48 2.222L378 573c-3.092-2.53-3.91-5.225-5-9"/><path fill="#3baebd" d="m237 567 1 3 2 1-5 2c.875-4.875.875-4.875 2-6"/><path fill="#6fd3db" d="m619 515 3 1c-1.875 2.125-1.875 2.125-4 4l-2-2c1.188-1.687 1.188-1.687 3-3"/><path fill="#5ccdd7" d="M549 340c1.75.023 1.75.023 4 .375l2.25.336L557 341l-1.937.375L553 342l-1 2v-2h-3z"/><path fill="#71d2db" d="M652 680c2.063.875 2.063.875 4 2l-1 2h-3c-.187-2-.187-2 0-4"/><path fill="#edf7f8" d="M793 611c1.364 5.455 1.364 5.455 1 8h-3z"/><path fill="#3caebc" d="M237 560h2c-.312 2-.312 2-1 4h-3c.875-2 .875-2 2-4"/><path fill="#eef8f9" d="M241 524h3c-.312 1.938-.312 1.938-1 4l-3 1c.313-2.5.313-2.5 1-5"/><path fill="#3aaebe" d="M699 689a89 89 0 0 1 5 2l-2 1-1 2-1-3-2-1z"/><path fill="#39acbc" d="m595 659 3 1v3c-2 .688-2 .688-4 1 .313-2.562.313-2.562 1-5"/><path fill="#f2fafb" d="M533 660c2.25 1.375 2.25 1.375 4 3l-8-1c1.75-1.187 1.75-1.187 4-2"/><path fill="#71d3db" d="M627 496h2q-.461 2.25-.937 4.5l-.528 2.531L627 505h-1c-.133-1.715-.133-1.715-.125-3.937l-.008-2.215C626 497 626 497 627 496"/><path fill="#3bacbd" d="M704 461c3 .313 3 .313 6 1-2 2-2 2-4.125 2.313L704 464z"/><path fill="#5dccd6" d="M658 419c1.563 1.875 1.563 1.875 3 4l-1 2c-1.625-.625-1.625-.625-3-2 .313-2.125.313-2.125 1-4"/><path fill="#70d4dc" d="M441 355v3c-1.875 1.313-1.875 1.313-4 2l-2-2z"/><path fill="#3daebc" d="m235 590 3 1c.188 2.063.188 2.063 0 4l-3-1c-.187-2.062-.187-2.062 0-4"/><path fill="#62cfd8" d="M416 518c2.867.573 3.861.861 6 3-2.437.188-2.437.188-5 0z"/><path fill="#fcfefd" d="M346 696v2c-3 1-3 1-5.187.063L339 697c2.49-.687 4.379-1 7-1"/><path fill="#6dd2da" d="M671 689h1q.063 2.5 0 5l-3-1c.75-2.062.75-2.062 2-4"/><path fill="#f4fbfc" d="M628 667c2 .313 2 .313 4 1v3c-2-.875-2-.875-4-2z"/><path fill="#f1f9fb" d="M600 660c2.063.938 2.063.938 4 2l-2 2c-1.687-1.312-1.687-1.312-3-3z"/><path fill="#3eaebc" d="M239 599h1q.063 3 0 6c-1.625-1.312-1.625-1.312-3-3 .75-1.687.75-1.687 2-3"/><path fill="#6fd3dc" d="M377 568h2c.625 3 .625 3 1 6-1.5-1.312-1.5-1.312-3-3z"/><path fill="#5ccdd7" d="M539 505c1.25 1.313 1.25 1.313 2 3-1.875 1.688-1.875 1.688-4 3z"/><path fill="#3daebe" d="M292 474h2c.313 2 .313 2 0 4h-3c.375-2 .375-2 1-4"/><path fill="#3db0be" d="M304 468c2.063.313 2.063.313 4 1l-1 3h-2c-.625-2-.625-2-1-4"/><path fill="#6dd2dc" d="M460.063 637.938 462 638l-1 3c-2.062-.812-2.062-.812-4-2 1-1 1-1 3.063-1.062"/><path fill="#5ccdd6" d="M430 623c1.625 1.438 1.625 1.438 3 3l-2 1c-1.625-1.437-1.625-1.437-3-3z"/><path fill="#3bafbe" d="M788 613h2l1 3-2 2z"/><path fill="#3ab0be" d="m385 609 4 4c-2-.312-2-.312-4-1z"/><path fill="#2ca6b7" d="m235 550 5 1c-1.937 1.188-1.937 1.188-4 2z"/><path fill="#3cafbe" d="m691 508 4 1-3 2z"/><path fill="#70d3dc" d="m493 484 1 2c-1.437 2.125-1.437 2.125-3 4l-1-3c1.438-1.687 1.438-1.687 3-3"/><path fill="#45b3c1" d="M336 456h3l1 3-2 1c-1.687-.812-1.687-.812-3-2z"/><path fill="#6fd3dc" d="m409 376 2 2h-3zm-2 2 2 2-3-1z"/><path fill="#3eaebd" d="m633 691 4 2-4 1z"/><path fill="#3cafbf" d="m474 690 4 2-3 2z"/><path fill="#3caebe" d="M602 667c1.938.375 1.938.375 4 1l1 2c-1.937-.375-1.937-.375-4-1z"/><path fill="#20a2b4" d="M583 651c2.063.438 2.063.438 4 1l-2 2c-1.625-.875-1.625-.875-3-2z"/><path fill="#71d3db" d="m372 560 4 1-1 2-3-1z"/><path fill="#34acbc" d="m262 497 2 1-1 3-3-1c.875-1.562.875-1.562 2-3"/><path fill="#73d3dc" d="m583 477 3 3-2 1-2-1z"/><path fill="#3aaebd" d="m290 477 2 2-4 2z"/><path fill="#5dcdd7" d="m364 440 2 1v2h-2l-1 2z"/><path fill="#58ccd5" d="m627 379 4 4c-2-.312-2-.312-4-1z"/><path fill="#70d2dc" d="m603 362 3 1v3l-3-1z"/><path fill="#3fb0bf" d="m470 660 3 1-1 2-3-1z"/><path fill="#fbfdfd" d="M524 660c2.063.938 2.063.938 4 2l-3 1-2-2z"/><path fill="#3db0bf" d="m779 636 1 3-3 1z"/><path fill="#3bafbd" d="m380 604 2 1-1 3-2-1z"/><path fill="#6ed3dc" d="m614 474 3 3h-3z"/><path fill="#2ea9ba" d="M300 468h2v3h-3z"/><path fill="#6dd3db" d="M421 365c1.625 1.375 1.625 1.375 3 3l-2 2z"/><path fill="#6fd3db" d="m433 359 3 1-4 2z"/><path fill="#59cdd6" d="m442 630 2 1v2l-4-2z"/><path fill="#26a6b5" d="m379 601 2 1-1 3-2-2z"/><path fill="#39adbc" d="M376 601h3l-1 3-2-1z"/><path fill="#70d2db" d="m364 534 2 1v2h-3z"/><path fill="#40b0bf" d="m246 523 2 3-3 1z"/><path fill="#3cadbc" d="m768 501 3 3h-3z"/><path fill="#3db0be" d="m591 657 2 2-3 1z"/><path fill="#71d2db" d="m577 509 2 1v2l-3-1z"/><path fill="#6dd3db" d="m584 474 3 1-2 2z"/><path fill="#3cadbe" d="m693 550 2 2h-3z"/><path fill="#6ed3dd" d="m529 472 2 2h-3z"/></svg>